<svg id="Layer_1" data-name="Layer 1" xmlns="http://www.w3.org/2000/svg" viewBox="0 0 1652.81 363"><defs><style>.cls-1{fill:#fff;}.cls-2{fill:#fffffe;fill-rule:evenodd;}.cls-3{fill:#e72e46;}</style></defs><path class="cls-1" d="M465.33,311.61c0-2.56-.72-4.47-2.16-5.75a8.87,8.87,0,0,0-6.08-1.92,13.47,13.47,0,0,0-5.36,1.07,13,13,0,0,0-4.23,2.77l-3.55-4a16.87,16.87,0,0,1,5.9-3.7,21.52,21.52,0,0,1,7.88-1.42,18.21,18.21,0,0,1,5.47.78,12,12,0,0,1,4.3,2.35,10.71,10.71,0,0,1,2.84,3.94,14.63,14.63,0,0,1,1.1,5.58c.05.66.07,1.3.07,1.92V326c0,1.28,0,2.59.11,3.91s.18,2.49.32,3.48h-6c-.09-.8-.17-1.63-.25-2.48s-.1-1.68-.1-2.49h-.14a12.59,12.59,0,0,1-4.91,4.44,15.1,15.1,0,0,1-6.67,1.39,16.14,16.14,0,0,1-4-.54A11.21,11.21,0,0,1,446,332a10.06,10.06,0,0,1-2.87-3.2A9.51,9.51,0,0,1,442,323.9a8.78,8.78,0,0,1,2-6.07,12.56,12.56,0,0,1,5.26-3.41,28.41,28.41,0,0,1,7.46-1.49c2.79-.22,5.66-.32,8.59-.32ZM464,317.08c-1.8,0-3.61.07-5.43.22a22.18,22.18,0,0,0-5,.92,9.47,9.47,0,0,0-3.66,2,4.48,4.48,0,0,0-1.42,3.45,5,5,0,0,0,.64,2.63,5.44,5.44,0,0,0,1.63,1.74,6.51,6.51,0,0,0,2.27,1,11.81,11.81,0,0,0,2.56.28,10.46,10.46,0,0,0,4.16-.78,9,9,0,0,0,3.09-2.17,9.26,9.26,0,0,0,1.92-3.19,11.72,11.72,0,0,0,.63-3.87v-2.21Z"/><path class="cls-1" d="M485.26,333.42h-6.61V299.61h29.77v33.81h-6.6V304.93H485.26Z"/><path class="cls-1" d="M522.35,333.42h-6.61V299.61h29.77v33.81H538.9V304.93H522.35Z"/><path class="cls-1" d="M573.88,311.61a7.29,7.29,0,0,0-2.17-5.75,8.87,8.87,0,0,0-6.08-1.92,13.47,13.47,0,0,0-5.36,1.07,13,13,0,0,0-4.23,2.77l-3.55-4a17,17,0,0,1,5.9-3.7,21.52,21.52,0,0,1,7.88-1.42,18.16,18.16,0,0,1,5.47.78,12,12,0,0,1,4.3,2.35,10.6,10.6,0,0,1,2.84,3.94,14.81,14.81,0,0,1,1.11,5.58c0,.66.07,1.3.07,1.92V326c0,1.28,0,2.59.1,3.91s.18,2.49.32,3.48h-6c-.1-.8-.18-1.63-.25-2.48s-.11-1.68-.11-2.49H574a12.63,12.63,0,0,1-4.9,4.44,15.18,15.18,0,0,1-6.68,1.39,16.14,16.14,0,0,1-4-.54,11.25,11.25,0,0,1-3.83-1.77,10.21,10.21,0,0,1-2.88-3.2,9.51,9.51,0,0,1-1.14-4.87,8.82,8.82,0,0,1,2-6.07,12.56,12.56,0,0,1,5.26-3.41,28.41,28.41,0,0,1,7.46-1.49c2.79-.22,5.66-.32,8.6-.32Zm-1.35,5.47c-1.8,0-3.62.07-5.44.22a22.18,22.18,0,0,0-5,.92,9.62,9.62,0,0,0-3.66,2,4.48,4.48,0,0,0-1.42,3.45,5,5,0,0,0,.64,2.63,5.44,5.44,0,0,0,1.63,1.74,6.51,6.51,0,0,0,2.27,1,11.81,11.81,0,0,0,2.56.28,10.43,10.43,0,0,0,4.16-.78,8.86,8.86,0,0,0,3.09-2.17,9.26,9.26,0,0,0,1.92-3.19,11.72,11.72,0,0,0,.64-3.87v-2.21Z"/><path class="cls-1" d="M593.81,350.47H587.2V299.61h6.47V305h.21a13.44,13.44,0,0,1,5.26-4.62,15.36,15.36,0,0,1,7-1.64,17.16,17.16,0,0,1,7,1.39,16,16,0,0,1,5.4,3.8,17,17,0,0,1,3.45,5.65,20.58,20.58,0,0,1,0,13.85,17,17,0,0,1-3.45,5.65,16.48,16.48,0,0,1-5.4,3.84,17.17,17.17,0,0,1-7.07,1.42,15.52,15.52,0,0,1-6.75-1.57,12.87,12.87,0,0,1-5.26-4.54h-.21Zm22.67-34a14.71,14.71,0,0,0-.75-4.71,10.84,10.84,0,0,0-5.86-6.55,11.38,11.38,0,0,0-4.9-1,11.56,11.56,0,0,0-4.73,1,11.38,11.38,0,0,0-3.73,2.62,11.63,11.63,0,0,0-2.41,3.9,13.71,13.71,0,0,0,0,9.56,11.63,11.63,0,0,0,2.41,3.9,11.38,11.38,0,0,0,3.73,2.62,12.44,12.44,0,0,0,9.63,0,10.84,10.84,0,0,0,5.86-6.55A14.71,14.71,0,0,0,616.48,316.48Z"/><path class="cls-1" d="M649.59,311.61c0-2.56-.72-4.47-2.17-5.75a8.84,8.84,0,0,0-6.07-1.92A13.48,13.48,0,0,0,636,305a12.8,12.8,0,0,0-4.22,2.77l-3.56-4a17.06,17.06,0,0,1,5.9-3.7,21.61,21.61,0,0,1,7.89-1.42,18.21,18.21,0,0,1,5.47.78,12.11,12.11,0,0,1,4.3,2.35,10.83,10.83,0,0,1,2.84,3.94,15,15,0,0,1,1.1,5.58c0,.66.07,1.3.07,1.92V326c0,1.28,0,2.59.11,3.91s.17,2.49.32,3.48h-6c-.1-.8-.18-1.63-.25-2.48s-.11-1.68-.11-2.49h-.14a12.56,12.56,0,0,1-4.9,4.44,15.15,15.15,0,0,1-6.68,1.39,16,16,0,0,1-4-.54A11.21,11.21,0,0,1,630.3,332a10.21,10.21,0,0,1-2.88-3.2,9.51,9.51,0,0,1-1.13-4.87,8.78,8.78,0,0,1,2-6.07,12.46,12.46,0,0,1,5.25-3.41,28.5,28.5,0,0,1,7.46-1.49c2.8-.22,5.66-.32,8.6-.32Zm-1.35,5.47c-1.8,0-3.61.07-5.44.22a22.18,22.18,0,0,0-5,.92,9.62,9.62,0,0,0-3.66,2,4.48,4.48,0,0,0-1.42,3.45,5,5,0,0,0,.64,2.63,5.55,5.55,0,0,0,1.63,1.74,6.57,6.57,0,0,0,2.28,1,11.67,11.67,0,0,0,2.56.28,10.41,10.41,0,0,0,4.15-.78,8.86,8.86,0,0,0,3.09-2.17,9.26,9.26,0,0,0,1.92-3.19,11.47,11.47,0,0,0,.64-3.87v-2.21Z"/><path class="cls-1" d="M658.19,299.61h29.7v5.32H676v28.49h-6.6V304.93H658.19Z"/><path class="cls-1" d="M697.64,333.42H691V299.61h6.61V313h17.12V299.61h6.61v33.81h-6.61V318.29H697.64Z"/><path class="cls-1" d="M735.34,299.61V311h6a25.89,25.89,0,0,1,6.85.78,12.19,12.19,0,0,1,4.55,2.24,8.43,8.43,0,0,1,2.52,3.52,12.94,12.94,0,0,1,.78,4.62,10.14,10.14,0,0,1-3.66,8.27q-3.64,3-11,3H728.73V299.61Zm0,28.84h5.9a11.73,11.73,0,0,0,5.89-1.31q2.28-1.32,2.28-5a6.61,6.61,0,0,0-.64-3.06,5.06,5.06,0,0,0-1.78-1.92,7.74,7.74,0,0,0-2.66-1,18.08,18.08,0,0,0-3.31-.28h-5.68Zm31.33-28.84v33.81h-6.61V299.61Z"/><path class="cls-1" d="M799.85,308.06l-19.19,25.36H774V299.61h6.67v24.65l19.19-24.65h6.68v33.81h-6.68ZM779.1,285.11a8.89,8.89,0,0,0,1.56,2.81,11.6,11.6,0,0,0,2.56,2.31,13.88,13.88,0,0,0,3.38,1.6,13.88,13.88,0,0,0,11.68-1.6,10.81,10.81,0,0,0,2.53-2.31,10.63,10.63,0,0,0,1.59-2.81l-3.9-1.92a7.69,7.69,0,0,1-2.85,3.7,8.8,8.8,0,0,1-9.8,0,7.73,7.73,0,0,1-2.84-3.7Z"/><path class="cls-1" d="M837.57,333.42H831V299.61h29.77v33.81h-6.6V304.93H837.57Z"/><path class="cls-1" d="M899.9,315.88v1.17a10.67,10.67,0,0,1-.07,1.24H872.76a11,11,0,0,0,1,4.23,10.72,10.72,0,0,0,2.38,3.37,11.49,11.49,0,0,0,3.52,2.28,11.88,11.88,0,0,0,10.37-.75,12.65,12.65,0,0,0,3.87-3.66l4.76,3.41a17.18,17.18,0,0,1-6.54,5.47,20.17,20.17,0,0,1-15.2.43,16.58,16.58,0,0,1-5.65-3.63,16.8,16.8,0,0,1-3.73-5.61,18.79,18.79,0,0,1-1.35-7.24,19.32,19.32,0,0,1,1.32-7.22,16.73,16.73,0,0,1,3.66-5.68,16.34,16.34,0,0,1,5.5-3.69,17.65,17.65,0,0,1,6.86-1.32,17.42,17.42,0,0,1,7,1.32,14.59,14.59,0,0,1,5.15,3.62,15.87,15.87,0,0,1,3.2,5.43A20.55,20.55,0,0,1,899.9,315.88Zm-6.39-2.28a10.56,10.56,0,0,0-2.7-7q-2.56-2.77-7.32-2.77a10.26,10.26,0,0,0-4.09.81,11.46,11.46,0,0,0-3.3,2.17,11,11,0,0,0-2.31,3.13,9.72,9.72,0,0,0-1,3.69Z"/><path class="cls-1" d="M907,343.3h-6V328h5.47l11.65-28.41h6.82L935.73,328h5.68V343.3h-6v-9.88H907Zm12.51-31.69L913.21,328h15.91l-7.53-20.74Z"/><path class="cls-1" d="M970,308.06l-19.18,25.36h-6.68V299.61h6.68v24.65L970,299.61h6.68v33.81H970Z"/><path class="cls-1" d="M990.68,313.1a26.17,26.17,0,0,1,4.76.43l10.94-13.92h7.32l-12.5,15.63a19.87,19.87,0,0,1,4.9,2.69,18.88,18.88,0,0,1,3.76,3.91,25.07,25.07,0,0,1,2.81,5.15,52.23,52.23,0,0,1,2.1,6.43h-7.32a30,30,0,0,0-2.35-7.07,14.43,14.43,0,0,0-3.44-4.54,12.13,12.13,0,0,0-4.76-2.49,28.29,28.29,0,0,0-6.22-.89v15h-6.61V299.61h6.61Z"/><path class="cls-1" d="M1068.17,316.51a18.1,18.1,0,0,1-1.39,7.18,17,17,0,0,1-3.84,5.65,17.37,17.37,0,0,1-5.8,3.69,20.45,20.45,0,0,1-14.16.11,17.6,17.6,0,0,1-5.62-3.38,16.46,16.46,0,0,1-3.88-5.15,18,18,0,0,1-1.75-6.53h-6.26v15.34h-6.61V299.61h6.61v13.14H1032a16.9,16.9,0,0,1,2.13-5.72,16.36,16.36,0,0,1,3.92-4.44,18,18,0,0,1,5.37-2.88,20,20,0,0,1,6.44-1,19.6,19.6,0,0,1,7.26,1.32,17.22,17.22,0,0,1,5.8,3.69,17,17,0,0,1,3.84,5.65A18.08,18.08,0,0,1,1068.17,316.51Zm-6.82,0a13.57,13.57,0,0,0-.82-4.76,11.68,11.68,0,0,0-2.31-3.89,10.61,10.61,0,0,0-3.62-2.61,11.47,11.47,0,0,0-4.76-1,11.63,11.63,0,0,0-4.83,1,10.61,10.61,0,0,0-3.62,2.61,11.29,11.29,0,0,0-2.28,3.89,14.27,14.27,0,0,0-.78,4.76,14.09,14.09,0,0,0,.78,4.7,11.29,11.29,0,0,0,2.28,3.89,11.13,11.13,0,0,0,3.62,2.65,12.39,12.39,0,0,0,9.66,0,11.28,11.28,0,0,0,3.63-2.65,11.43,11.43,0,0,0,2.27-3.89A14.09,14.09,0,0,0,1061.35,316.51Z"/><path class="cls-1" d="M1080,350.47h-6.61V299.61h6.46V305h.22a13.41,13.41,0,0,1,5.25-4.62,15.37,15.37,0,0,1,7-1.64,17.16,17.16,0,0,1,7,1.39,16,16,0,0,1,5.39,3.8,16.85,16.85,0,0,1,3.45,5.65,20.42,20.42,0,0,1,0,13.85,16.85,16.85,0,0,1-3.45,5.65,16.54,16.54,0,0,1-5.39,3.84,17.2,17.2,0,0,1-7.07,1.42,15.45,15.45,0,0,1-6.75-1.57,12.87,12.87,0,0,1-5.26-4.54H1080Zm22.66-34a14.71,14.71,0,0,0-.75-4.71,10.92,10.92,0,0,0-2.23-3.9,11.13,11.13,0,0,0-3.63-2.65,11.35,11.35,0,0,0-4.9-1,11.51,11.51,0,0,0-4.72,1,11.28,11.28,0,0,0-3.73,2.62,11.66,11.66,0,0,0-2.42,3.9,13.87,13.87,0,0,0,0,9.56,11.66,11.66,0,0,0,2.42,3.9,11.28,11.28,0,0,0,3.73,2.62,12.41,12.41,0,0,0,9.62,0,11.13,11.13,0,0,0,3.63-2.65,10.92,10.92,0,0,0,2.23-3.9A14.71,14.71,0,0,0,1102.67,316.48Z"/><path class="cls-2" d="M1652.81,81.14a27.3,27.3,0,1,1-3.67-13.68,26.89,26.89,0,0,1,3.67,13.68Zm-5.28,0a22.1,22.1,0,1,0-37.71,15.6,22.09,22.09,0,0,0,37.71-15.6ZM1613,66.5h13.09c3.71,0,6.39.74,8.05,2.24a7.68,7.68,0,0,1,2.5,6,7.42,7.42,0,0,1-1.91,5.09,11.27,11.27,0,0,1-6,3.12,7.87,7.87,0,0,1,2.47,1.37,13.87,13.87,0,0,1,2.33,3c0,.1,1.61,2.93,4.72,8.48h-8.59c-2.8-5.58-4.67-8.9-5.62-10a4,4,0,0,0-2.88-1.64,4.49,4.49,0,0,0-.89.11V95.78H1613V66.5Zm7.27,12.4h3.15c2.1,0,3.58-.34,4.44-1a3.21,3.21,0,0,0,1.29-2.64,3.28,3.28,0,0,0-1.24-2.64c-.82-.69-2.22-1-4.2-1h-3.44Z"/><path class="cls-1" d="M572.62,47.9V97.09H554.68a56.65,56.65,0,0,0-1.3-8.54,30.27,30.27,0,0,0-3.61-8.82,26.39,26.39,0,0,0-4.06-6.22,50.38,50.38,0,0,0-6.07-5.93,49.85,49.85,0,0,0-26.91-10.71h-3.19a54.92,54.92,0,0,0-6.51.43,43.09,43.09,0,0,0-7.37,1.59,39.86,39.86,0,0,0-15.48,8.4q-7.1,6.08-7.09,17.07,0,12.74,7.37,17.94a86,86,0,0,0,16.35,9,.85.85,0,0,1,.58.29,3.37,3.37,0,0,1,1,.14,2,2,0,0,1,.73.44l44,17.94q3.18,1.15,6.8,2.89a54.41,54.41,0,0,1,7.38,4.34A60.13,60.13,0,0,1,574.22,154q7.65,10.85,7.66,29.37,0,26.63-21.41,43.84t-53.24,17.21a111,111,0,0,1-21-2.6q-12.87-2.61-26.47-14.18l-4.92,13.89H441V190.55h16.49a63.52,63.52,0,0,0,2.32,10.71,33.87,33.87,0,0,0,6.07,11.28,41.8,41.8,0,0,0,3.18,3.91c1.16,1.26,2.41,2.56,3.77,3.91a44.69,44.69,0,0,0,15,9.11,54,54,0,0,0,18.52,3q17.65,0,29.23-9.41t11.57-22.71q0-13.59-8.1-19.82A86.84,86.84,0,0,0,521.12,170c-.39-.19-.82-.39-1.3-.58s-1-.39-1.59-.58l-34.15-14.47a75.22,75.22,0,0,1-19.82-11.86,61.72,61.72,0,0,1-12-13.6A47,47,0,0,1,445.31,112a80.69,80.69,0,0,1-1.45-13.45q0-21.12,17.65-37.48t45.72-16.34a69.32,69.32,0,0,1,7.67.43q3.9.43,8,1.3a76.39,76.39,0,0,1,14.75,5.07,70.91,70.91,0,0,1,13.31,7.95l6.37-11.57Z"/><path class="cls-1" d="M741.32,227v14.47H686.63V230.19a49.77,49.77,0,0,1-15.19,10.28q-8.84,3.9-22.14,3.9-17.94,0-33-12.44t-15.05-33.85A44.35,44.35,0,0,1,615,165.38q13.74-13.6,34.29-13.6,14.18,0,23,4.34a49.84,49.84,0,0,1,14.32,10.13V137.6q0-12.15-5.64-17.22a19.15,19.15,0,0,0-13.17-5.06h-3.47a65.25,65.25,0,0,0-11.14,1.3,40.39,40.39,0,0,0-14.9,6.51,37.81,37.81,0,0,0-5.79,4.34,53.28,53.28,0,0,0-5.5,5.79l-15.33-17.94a91.89,91.89,0,0,1,25.17-10.13A131.28,131.28,0,0,1,667.24,102q28.65,0,40.51,7.38t15,16.06a31.1,31.1,0,0,1,1.59,6.22,41.72,41.72,0,0,1,.43,5.93V227Zm-54.69-46.88a23.48,23.48,0,0,0-8.25-8.53,20.7,20.7,0,0,0-10.85-3q-1.74,0-3.33.15a14.07,14.07,0,0,0-3.32.72,29.17,29.17,0,0,0-13.75,8.68q-6.23,6.66-6.22,20,0,12.73,5.5,19.24a28,28,0,0,0,12.15,8.82,26.49,26.49,0,0,0,4.63,1.3,23.57,23.57,0,0,0,4.34.44,20.7,20.7,0,0,0,10.85-3,23.43,23.43,0,0,0,8.25-8.54Z"/><path class="cls-1" d="M813.94,125.16h1.74A46.46,46.46,0,0,1,830.58,109q10-6.95,27.34-6.94,20.25,0,28.65,9.26a43.29,43.29,0,0,1,10.71,20.54,61.15,61.15,0,0,1,1.3,10.85c.09,3.58.14,6.8.14,9.7V227h16.21v14.47H844.32V227h16.21V150a49.38,49.38,0,0,0-4.34-17.94Q852.43,124,840,124c-1,0-1.93,0-2.89.14a10.49,10.49,0,0,0-2.89.73Q827,126.61,821,134.56t-5.93,25.32V227h16.2v14.47H760.7V227h16.2V120H760.7V105.48h54.4V120Z"/><path class="cls-1" d="M1075.23,227v14.47h-54.69V230.19a49.77,49.77,0,0,1-15.19,10.28q-8.83,3.9-22.14,3.9-17.94,0-33-12.44t-15.05-33.85a44.35,44.35,0,0,1,13.74-32.7q13.74-13.6,34.29-13.6,14.17,0,23,4.34a49.84,49.84,0,0,1,14.32,10.13V137.6q0-12.15-5.64-17.22a19.15,19.15,0,0,0-13.17-5.06h-3.47a65.25,65.25,0,0,0-11.14,1.3,40.39,40.39,0,0,0-14.9,6.51,38.3,38.3,0,0,0-5.79,4.34,53.28,53.28,0,0,0-5.5,5.79L945.6,115.32a91.89,91.89,0,0,1,25.17-10.13,131.28,131.28,0,0,1,30.38-3.18q28.65,0,40.51,7.38t15,16.06a31.1,31.1,0,0,1,1.59,6.22,41.72,41.72,0,0,1,.43,5.93V227Zm-54.69-46.88a23.48,23.48,0,0,0-8.25-8.53,20.7,20.7,0,0,0-10.85-3q-1.74,0-3.33.15a14.07,14.07,0,0,0-3.32.72A29.17,29.17,0,0,0,981,178.11q-6.22,6.66-6.22,20,0,12.73,5.5,19.24a28,28,0,0,0,12.15,8.82,26.49,26.49,0,0,0,4.63,1.3,23.57,23.57,0,0,0,4.34.44,20.7,20.7,0,0,0,10.85-3,23.43,23.43,0,0,0,8.25-8.54Z"/><path class="cls-1" d="M1150.75,52.82v52.66h23.72V120h-23.72v95.49a65.33,65.33,0,0,0,.72,10.27q.72,4.48,5.93,4.48,5.79,0,7.67-5.93a59.53,59.53,0,0,0,2.46-13.16l15.62,10.12q-2.89,9.27-8.82,14.18a32.59,32.59,0,0,1-12.59,6.66,40.29,40.29,0,0,1-8.53,1.88,72.56,72.56,0,0,1-7.38.43q-16.5,0-23.3-7.23a34.54,34.54,0,0,1-8.82-15.92c-.39-2.31-.68-4.63-.87-6.94s-.29-4.44-.29-6.37V120h-17.94V105.48h17.94V66.42Z"/><path class="cls-1" d="M1239.87,174.93q0,29.81,12.73,41.95t28.07,13H1283a27.62,27.62,0,0,0,7.24-1,24.3,24.3,0,0,0,7.23-3.33,45.76,45.76,0,0,0,10.42-8.24,66.47,66.47,0,0,0,9.83-13.46l12.16,12.44a6.57,6.57,0,0,1-1.3,1.45,6.35,6.35,0,0,0-1.31,1.45q-12.15,13-25.46,19.1t-33,6.07q-33,0-51.21-22.42t-18.23-50.5q0-29.5,18.66-49.48t49.34-20q31,0,47,20.11t16.06,45V171a28.05,28.05,0,0,1-.29,3.91Zm52.66-14.76v-5.5q0-18.22-4.92-26.76t-10.71-11.43a15.81,15.81,0,0,0-5.2-1.88,28.65,28.65,0,0,0-4.63-.44c-1,0-2,0-3,.15a15.35,15.35,0,0,0-3.33.72q-7.82,2.32-14.47,12.3t-6.36,32.84Z"/><path class="cls-1" d="M1404.22,127.18A49.12,49.12,0,0,1,1417.67,110q9.12-7.66,19.53-7.67a22.5,22.5,0,0,1,3.33.29,21.48,21.48,0,0,1,3.62.87,29.72,29.72,0,0,1,5.06,1.59,24.07,24.07,0,0,1,4.2,2.17,1.41,1.41,0,0,1,.58.14,2.69,2.69,0,0,1,.58.44l-14.47,31h-4q-1.17-7.23-5.36-10.28a19,19,0,0,0-8.82-3.61h-2q-7.23,0-10.41,6.22a44.38,44.38,0,0,0-4.34,13.45q-.58,4.64-.73,9.12c-.1,3-.14,5.45-.14,7.38v66h18.52v14.47h-72.92V227H1366V120h-16.2V105.48h54.4V122l-1.45,5.21Z"/><path class="cls-1" d="M1599.53,227v14.47h-54.69V230.19a49.65,49.65,0,0,1-15.19,10.28q-8.82,3.9-22.13,3.9-18,0-33-12.44t-15-33.85a44.32,44.32,0,0,1,13.75-32.7q13.74-13.6,34.29-13.6,14.18,0,23,4.34a49.7,49.7,0,0,1,14.32,10.13V137.6q0-12.15-5.64-17.22a19.11,19.11,0,0,0-13.16-5.06h-3.48a65.46,65.46,0,0,0-11.14,1.3,40.46,40.46,0,0,0-14.9,6.51,38.3,38.3,0,0,0-5.79,4.34,52.26,52.26,0,0,0-5.49,5.79l-15.34-17.94a92.14,92.14,0,0,1,25.17-10.13,131.31,131.31,0,0,1,30.39-3.18q28.63,0,40.51,7.38t15,16.06a30.43,30.43,0,0,1,1.59,6.22,41.76,41.76,0,0,1,.44,5.93V227Zm-54.69-46.88a23.37,23.37,0,0,0-8.24-8.53,20.72,20.72,0,0,0-10.85-3q-1.74,0-3.33.15a14.25,14.25,0,0,0-3.33.72,29.09,29.09,0,0,0-13.74,8.68q-6.22,6.66-6.22,20,0,12.73,5.49,19.24a28.05,28.05,0,0,0,12.16,8.82,26.49,26.49,0,0,0,4.63,1.3,23.48,23.48,0,0,0,4.34.44,20.72,20.72,0,0,0,10.85-3,23.33,23.33,0,0,0,8.24-8.54Z"/><path class="cls-3" d="M296.37,64.7a3.55,3.55,0,0,1-5.86,2.69,2.29,2.29,0,0,0-.23-.21l0,0c-1-.83-1.95-1.63-2.94-2.41-2-1.58-3.88-3.34-6-4.79l-6.24-4.45c-2.08-1.49-4.33-2.71-6.47-4.06l-3.26-2c-1.07-.65-2.24-1.18-3.36-1.79l-6.74-3.52-7-3a149.38,149.38,0,0,0-28.79-8.86l-3.66-.78c-1.24-.21-2.48-.36-3.72-.55-2.47-.33-4.93-.73-7.41-1-5-.3-9.91-.85-14.87-.7-19.85-.27-39.4,4-57.44,11.15A146.84,146.84,0,0,0,84.58,72a144.15,144.15,0,0,0-31.27,46.71,141,141,0,0,0-10.78,54A137.83,137.83,0,0,0,53.1,225.55,23.89,23.89,0,0,1,9,243.89a20.32,20.32,0,0,1-.79-2.14l-.09-.32a182.45,182.45,0,0,1-7.25-71A179.63,179.63,0,0,1,21,103.3,177.28,177.28,0,0,1,64.65,49.85a174.28,174.28,0,0,1,59.79-32c21.61-6.32,44.25-8.9,66.33-6.51,5.54.36,11,1.49,16.42,2.37,2.69.55,5.36,1.26,8.06,1.89,1.33.32,2.67.63,4,1l4,1.24a162.5,162.5,0,0,1,30.23,12.56l7.12,4,6.84,4.41c1.12.77,2.29,1.45,3.38,2.26L274,43.4c2.14,1.66,4.39,3.17,6.42,4.94l6.12,5.29c2.06,1.72,3.86,3.74,5.81,5.59.95.92,1.91,1.87,2.82,2.83a0,0,0,0,1,0,0l.4.42A3.4,3.4,0,0,1,296.37,64.7ZM63.94,309.17c.14.13.27.29.41.42s0,0,0,0c.92.95,1.88,1.91,2.83,2.82,2,1.86,3.74,3.88,5.8,5.6l6.13,5.28c2,1.78,4.28,3.29,6.41,4.95l3.25,2.44c1.09.8,2.25,1.49,3.38,2.25L99,337.36l7.12,4a162.35,162.35,0,0,0,30.24,12.57l4,1.24c1.32.34,2.65.65,4,1,2.69.63,5.37,1.34,8.06,1.89,5.44.88,10.88,2,16.41,2.37,22.09,2.38,44.73-.19,66.34-6.51a174.28,174.28,0,0,0,59.79-32.05,177.35,177.35,0,0,0,43.63-53.45,179.52,179.52,0,0,0,20.18-67.18,182.45,182.45,0,0,0-7.25-71l-.1-.33c-.23-.72-.48-1.43-.78-2.14a23.9,23.9,0,0,0-44.14,18.35A137.65,137.65,0,0,1,317,198.93a140.93,140.93,0,0,1-10.79,54A144.06,144.06,0,0,1,275,299.63a147,147,0,0,1-47.8,31.72c-18,7.18-37.59,11.42-57.44,11.15-5,.15-9.89-.4-14.87-.71-2.48-.28-4.95-.68-7.41-1-1.24-.19-2.48-.34-3.72-.55l-3.67-.79a149.25,149.25,0,0,1-28.78-8.85l-7-3.06L97.56,324c-1.13-.61-2.29-1.14-3.36-1.79l-3.26-2c-2.14-1.35-4.39-2.57-6.47-4.06l-6.25-4.45c-2.12-1.45-4-3.21-6-4.79-1-.79-2-1.59-2.94-2.41,0,0,0,0,0,0a2.09,2.09,0,0,1-.23-.21A3.55,3.55,0,0,0,63.16,307,3.47,3.47,0,0,0,63.94,309.17Z"/><path class="cls-3" d="M185.38,197.31c-5.78-5.94-6.49-4.88-15.19-13.58-9.67-9.67-12.62-14.81-14-17.43a52.28,52.28,0,0,1-2.65-6.06H109.51a2.55,2.55,0,0,0-2.55,2.54v46.53a2.55,2.55,0,0,0,2.55,2.54H154v44.47a2.54,2.54,0,0,0,2.54,2.53h19.07a31.17,31.17,0,0,0,12.05-2.28,25,25,0,0,0,12.5-10.82,28.36,28.36,0,0,0,3.3-14.28C203.31,215.77,191.88,204,185.38,197.31Z"/><path class="cls-3" d="M252.57,209.31V162.78a2.54,2.54,0,0,0-2.54-2.54H205.57V115.78a2.53,2.53,0,0,0-2.53-2.54H184a31.24,31.24,0,0,0-12.05,2.28,24.88,24.88,0,0,0-12.49,10.82,28.29,28.29,0,0,0-3.31,14.28c.11,15.7,11.55,27.47,18,34.16,5.77,5.94,6.49,4.87,15.19,13.57,9.67,9.68,12.61,14.82,14,17.44a50.83,50.83,0,0,1,2.65,6.06H250A2.54,2.54,0,0,0,252.57,209.31Z"/></svg>