<?xml version="1.0" standalone="no"?>
<!DOCTYPE svg PUBLIC "-//W3C//DTD SVG 20010904//EN"
 "http://www.w3.org/TR/2001/REC-SVG-20010904/DTD/svg10.dtd">
<svg version="1.0" xmlns="http://www.w3.org/2000/svg"
 width="1280.000000pt" height="266.000000pt" viewBox="0 0 1280.000000 266.000000"
 preserveAspectRatio="xMidYMid meet">

<g transform="translate(0.000000,266.000000) scale(0.100000,-0.100000)"
fill="#000000" stroke="none">
<path d="M1150 2610 l0 -50 213 0 c188 0 216 -2 247 -19 50 -27 73 -62 77
-123 5 -65 -17 -112 -66 -145 -33 -22 -42 -23 -252 -23 l-219 0 0 -51 0 -51
223 4 c208 3 225 4 269 26 104 51 162 164 140 271 -14 65 -53 125 -103 158
-69 45 -117 53 -331 53 l-198 0 0 -50z"/>
<path d="M1835 2608 c125 -190 54 -439 -153 -536 -56 -27 -61 -27 -294 -30
l-238 -3 0 -45 0 -45 248 3 c240 3 249 4 304 29 134 59 219 150 262 280 41
123 35 215 -21 342 l-26 57 -58 0 -59 0 35 -52z"/>
<path d="M2055 2643 c44 -100 57 -278 29 -387 -33 -128 -124 -254 -236 -326
l-56 -37 131 -131 132 -132 58 0 c31 0 57 3 57 7 0 4 -52 60 -116 124 l-117
117 71 73 c53 54 84 97 119 167 l48 94 3 177 c2 124 -1 189 -11 221 l-13 45
-53 3 c-48 3 -53 1 -46 -15z"/>
<path d="M1150 2405 l0 -45 203 0 c213 0 227 3 227 45 0 42 -14 45 -227 45
l-203 0 0 -45z"/>
<path d="M2138 1921 l-36 -49 39 -38 39 -38 0 87 c0 48 -1 87 -2 86 -2 0 -20
-22 -40 -48z"/>
<path d="M1602 1841 l-43 -6 104 -103 104 -104 62 -1 c33 -1 61 0 61 2 0 13
-217 221 -229 219 -9 0 -35 -4 -59 -7z"/>
<path d="M1375 1730 l110 -110 57 0 c32 0 58 3 58 7 0 3 -46 53 -102 110
l-102 103 -65 0 -66 0 110 -110z"/>
<path d="M1150 1729 c0 -56 3 -69 24 -88 20 -19 33 -22 85 -19 l62 3 -86 85
-85 85 0 -66z"/>
</g>
</svg>
