<svg id="Слой_1" data-name="Слой 1" xmlns="http://www.w3.org/2000/svg" width="209.61mm" height="43.57mm" viewBox="0 0 594.17 123.5">
  <defs>
    <style>
      .cls-1 {
        fill: none;
      }

      .cls-2 {
        fill: #fff;
      }

      .cls-3 {
        fill: #ee736b;
      }

      .cls-4 {
        fill: #50b47f;
      }

      .cls-5 {
        fill: #f49c39;
      }

      .cls-6 {
        fill: #6063ab;
      }

      .cls-7 {
        fill: #5db6d8;
      }

      .cls-8 {
        fill: #777;
      }
    </style>
  </defs>
  <path class="cls-1" d="M168.72,100.05a5,5,0,0,0-2.05.41,5.56,5.56,0,0,0-2.81,2.65,5,5,0,0,0-.52,1.86h10.4a5.29,5.29,0,0,0-1.35-3.53A4.73,4.73,0,0,0,168.72,100.05Z" transform="translate(0 0)"/>
  <path class="cls-1" d="M206.36,62.76a10.13,10.13,0,0,0,1.21,3.43A9.09,9.09,0,0,1,206.36,62.76Z" transform="translate(0 0)"/>
  <path class="cls-1" d="M214.65,71v0a11.11,11.11,0,0,1-1.77-.5,10.78,10.78,0,0,1-4.67-3.38,4.8,4.8,0,0,1-.39-.53c.12.17.25.33.38.49a10.78,10.78,0,0,0,4.67,3.38A11.11,11.11,0,0,0,214.65,71Z" transform="translate(0 0)"/>
  <path class="cls-2" d="M223.65,52.85V66.72a8.82,8.82,0,0,1-.63,1c.22-.31.43-.63.62-1V52.83S223.65,52.84,223.65,52.85Z" transform="translate(0 0)"/>
  <path class="cls-1" d="M567.92,102.09a5.56,5.56,0,0,0-1.82-1.33,6.2,6.2,0,0,0-4.82,0,5.35,5.35,0,0,0-1.87,1.32,5.71,5.71,0,0,0-1.21,2,6.84,6.84,0,0,0,0,4.8,5.86,5.86,0,0,0,1.21,2,5.46,5.46,0,0,0,1.87,1.31,5.81,5.81,0,0,0,2.37.48,5.61,5.61,0,0,0,2.45-.5,5.42,5.42,0,0,0,2.94-3.28,7.61,7.61,0,0,0,0-4.72A5.46,5.46,0,0,0,567.92,102.09Z" transform="translate(0 0)"/>
  <polygon class="cls-1" points="195.04 103.97 191.91 112.2 199.89 112.2 196.11 101.8 195.04 103.97"/>
  <path class="cls-1" d="M485.65,100.05a5.08,5.08,0,0,0-2,.41,5.56,5.56,0,0,0-1.66,1.09,5.68,5.68,0,0,0-1.15,1.56,4.84,4.84,0,0,0-.52,1.86h10.4a5.29,5.29,0,0,0-1.35-3.53A4.75,4.75,0,0,0,485.65,100.05Z" transform="translate(0 0)"/>
  <path class="cls-2" d="M545.44,48.41a2.82,2.82,0,0,1,.41,0h-.41c-.44,0-.87,0-1.28,0a5.43,5.43,0,0,0-1.27.28l-.33.1.33-.11a5.43,5.43,0,0,1,1.27-.28A10.7,10.7,0,0,1,545.44,48.41Z" transform="translate(0 0)"/>
  <path class="cls-2" d="M549.6,49.57l.24.16-.24-.15a8.11,8.11,0,0,0-1-.5A6.78,6.78,0,0,1,549.6,49.57Z" transform="translate(0 0)"/>
  <path class="cls-2" d="M435.8,44.5c0,.23,0,.46,0,.69h0Z" transform="translate(0 0)"/>
  <path class="cls-2" d="M438.24,32.6a15.53,15.53,0,0,1,2-2.46,16.59,16.59,0,0,0-2,2.46,10.07,10.07,0,0,0-.83,1.53A10,10,0,0,1,438.24,32.6Z" transform="translate(0 0)"/>
  <path class="cls-2" d="M440.23,30.14A10.09,10.09,0,0,1,442,28.72,11.6,11.6,0,0,0,440.23,30.14Z" transform="translate(0 0)"/>
  <path class="cls-2" d="M446.23,27.55c-.37,0-.75.05-1.16.05A9.32,9.32,0,0,1,446.23,27.55Z" transform="translate(0 0)"/>
  <path class="cls-1" d="M334.3,62a11.29,11.29,0,0,0,1.05,3.69A10.56,10.56,0,0,1,334.3,62Z" transform="translate(0 0)"/>
  <path class="cls-2" d="M344.38,48.41a8.05,8.05,0,0,1,1.63.17,8.75,8.75,0,0,0-1.63-.16c-.45,0-.88,0-1.28,0a5.52,5.52,0,0,0-1.28.28l-.66.21c.21-.08.44-.16.66-.22a5.52,5.52,0,0,1,1.28-.28A10.54,10.54,0,0,1,344.38,48.41Z" transform="translate(0 0)"/>
  <path class="cls-2" d="M348.54,49.57A9.32,9.32,0,0,1,350.33,51a9.27,9.27,0,0,0-1.79-1.44,8.09,8.09,0,0,0-2-.87A7.7,7.7,0,0,1,348.54,49.57Z" transform="translate(0 0)"/>
  <path class="cls-2" d="M8.51,102.12H4.13L0,115.12H3.89l.49-1.7H8.15l.48,1.7V115h4ZM5.23,110.5l1-3.94h0v0l1.09,4Z" transform="translate(0 0)"/>
  <path class="cls-2" d="M33.17,110.14a4.22,4.22,0,0,0,1.48-1.46,4.69,4.69,0,0,0-.85-5.35,5,5,0,0,0-3.53-1.21H25V115h3.65v-4h1l2.07,4h4Zm-1.53-3.31v0a1.11,1.11,0,0,1-.4.85v0a2.3,2.3,0,0,1-1,.24H28.81v-2.31h1.46a1.14,1.14,0,0,1,1,.37.87.87,0,0,1,.35.55.85.85,0,0,1,0,.23A.15.15,0,0,0,31.64,106.83Z" transform="translate(0 0)"/>
  <path class="cls-2" d="M54.58,105.4a3.22,3.22,0,0,1,1.46.36,2.53,2.53,0,0,1,1,1l3.16-1.82a6.28,6.28,0,0,0-5.59-3.16,6.81,6.81,0,1,0,0,13.62,6,6,0,0,0,3.29-.86,6.78,6.78,0,0,0,2.3-2.31L57,110.38a2.35,2.35,0,0,1-1,1,2.49,2.49,0,0,1-1.46.37,2.94,2.94,0,0,1-2.19-.85,3.28,3.28,0,0,1-.85-2.31,3.08,3.08,0,0,1,.85-2.31A2.76,2.76,0,0,1,54.58,105.4Z" transform="translate(0 0)"/>
  <polygon class="cls-2" points="79.99 106.73 76.83 106.73 76.83 102.11 73.18 102.11 73.18 115 76.83 115 76.83 110.26 79.99 110.26 79.99 115 83.64 115 83.64 102.11 79.99 102.11 79.99 106.73"/>
  <rect class="cls-2" x="97.62" y="102.12" width="3.65" height="12.89"/>
  <rect class="cls-3" x="87.65" y="53" width="4.38" height="39.87"/>
  <rect class="cls-3" x="96.89" y="53" width="4.38" height="39.87"/>
  <polygon class="cls-4" points="5.11 0 0 2.92 0 8.14 13.98 0 5.11 0"/>
  <polygon class="cls-4" points="48.26 19.09 48.26 13.98 24.07 0 0 13.98 0 19.09 24.07 5.11 48.26 19.09"/>
  <polygon class="cls-4" points="48.26 2.92 43.16 0 34.28 0 48.26 8.14 48.26 2.92"/>
  <polygon class="cls-4" points="48.26 30.03 48.26 24.92 24.07 10.94 0 24.92 0 30.03 24.07 16.17 48.26 30.03"/>
  <polygon class="cls-4" points="48.26 41.09 48.26 35.86 24.07 22 0 35.86 0 41.09 24.07 27.11 48.26 41.09"/>
  <polygon class="cls-4" points="24.07 38.05 41.82 48.26 48.26 48.26 48.26 46.92 24.07 32.94 0 46.92 0 48.26 6.44 48.26 24.07 38.05"/>
  <polygon class="cls-4" points="16.66 48.26 31.61 48.26 24.07 43.88 16.66 48.26"/>
  <path class="cls-5" d="M0,53V67.23A36.78,36.78,0,0,1,5.71,53Z" transform="translate(0 0)"/>
  <path class="cls-5" d="M0,78.65V92.88H5.71A35.7,35.7,0,0,1,0,78.65Z" transform="translate(0 0)"/>
  <path class="cls-5" d="M9,72.94A26.39,26.39,0,0,1,18.23,53H11.67A31.14,31.14,0,0,0,4.38,72.94a30.24,30.24,0,0,0,7.29,19.94h6.56A26.76,26.76,0,0,1,9,72.94Z" transform="translate(0 0)"/>
  <path class="cls-5" d="M35.38,92.88V89.59h-.13a16.66,16.66,0,0,1,0-33.31h.13V53H27.6A21.51,21.51,0,0,0,14,72.94,21.21,21.21,0,0,0,27.6,92.88Z" transform="translate(0 0)"/>
  <path class="cls-5" d="M35.38,61h-.13a11.91,11.91,0,0,0,0,23.82h.13V80.11h-.13a7.17,7.17,0,0,1,0-14.34h.13Z" transform="translate(0 0)"/>
  <line class="cls-1" x1="35.38" y1="70.63" x2="35.38" y2="70.75"/>
  <path class="cls-5" d="M32.94,73.06a2.31,2.31,0,0,0,2.31,2.31h.13V70.75h-.13A2.31,2.31,0,0,0,32.94,73.06Z" transform="translate(0 0)"/>
  <polygon class="cls-6" points="61.76 48.26 53 39.51 53 46.2 55.07 48.26 61.76 48.26"/>
  <polygon class="cls-6" points="58.23 38.05 68.56 48.26 75.13 48.26 64.92 38.05 58.23 38.05"/>
  <path class="cls-6" d="M88.62,48.26,77.56,37.32a22.53,22.53,0,0,1-5.84.73L81.94,48.26Z" transform="translate(0 0)"/>
  <path class="cls-6" d="M94.7,0A26.31,26.31,0,0,1,83,35.34l-.32.16L95.43,48.14h5.83v-.73L90.2,36.35l1.8-1.7a31.44,31.44,0,0,0,9.36-15.44V4.38A32,32,0,0,0,99.93,0Z" transform="translate(0 0)"/>
  <path class="cls-6" d="M83.15,11.91A11.93,11.93,0,0,0,71.24,0H53V4.74H71.24a7.18,7.18,0,0,1,0,14.35H53v4.74H71.24A11.92,11.92,0,0,0,83.15,11.91Z" transform="translate(0 0)"/>
  <path class="cls-6" d="M73.67,11.91a2.42,2.42,0,0,0-2.31-2.43H53.12v4.74H71.36A2.3,2.3,0,0,0,73.67,11.91Z" transform="translate(0 0)"/>
  <path class="cls-6" d="M92.63,11.91A20.89,20.89,0,0,0,89,0H82.91a16.86,16.86,0,0,1,5,11.91A16.59,16.59,0,0,1,71.37,28.57H53v4.74H71.24A21.42,21.42,0,0,0,92.63,11.91Z" transform="translate(0 0)"/>
  <path class="cls-6" d="M101.26,40.72V31.24a33.11,33.11,0,0,1-4.13,5.23Z" transform="translate(0 0)"/>
  <polygon class="cls-7" points="78.17 92.88 82.91 92.88 82.91 53 78.17 53 78.17 70.51 44.86 70.51 44.86 53 40.12 53 40.12 92.88 44.86 92.88 44.86 75.37 78.17 75.37 78.17 92.88"/>
  <polygon class="cls-7" points="73.43 53 68.69 53 68.69 61.03 54.34 61.03 54.34 53 49.6 53 49.6 65.77 73.43 65.77 73.43 53"/>
  <rect class="cls-7" x="59.08" y="53" width="4.74" height="3.28"/>
  <polygon class="cls-7" points="73.43 92.88 73.43 80.11 49.6 80.11 49.6 92.88 54.34 92.88 54.34 84.85 68.69 84.85 68.69 92.88 73.43 92.88"/>
  <rect class="cls-7" x="59.08" y="89.59" width="4.74" height="3.28"/>
  <path class="cls-2" d="M586.75,17.29l-.09-.17a5.5,5.5,0,0,0-.77-1,3,3,0,0,0-.89-.51l-.06,0a4.33,4.33,0,0,0,2.3-1.19,3.1,3.1,0,0,0,.44-.65,2.7,2.7,0,0,0,.27-1,1.15,1.15,0,0,0,0-.19,1.21,1.21,0,0,0,0-.19,2.93,2.93,0,0,0-1-2.3,4.55,4.55,0,0,0-3.09-.86h-5V20.5h2.79V16.08H582a1.53,1.53,0,0,1,1.1.63,25.27,25.27,0,0,1,2.16,3.83h3.29ZM585,13.2a.92.92,0,0,1-.13.21,1.45,1.45,0,0,1-.21.22,2.82,2.82,0,0,1-1.7.39H581.7V11.21H583a2.54,2.54,0,0,1,1,.09,2.8,2.8,0,0,1,.66.3,1.29,1.29,0,0,1,.47,1,1.27,1.27,0,0,1,0,.34A1.39,1.39,0,0,1,585,13.2Z" transform="translate(0 0)"/>
  <path class="cls-2" d="M592.76,9.64a10.49,10.49,0,1,0,0,10.49A10.51,10.51,0,0,0,592.76,9.64ZM590,20.56a4.11,4.11,0,0,1-.29.3l0,0a7.82,7.82,0,0,1-.6.55h0c-.21.17-.41.32-.63.47l-.08.05c-.2.14-.41.26-.62.38l-.08,0c-.22.11-.44.22-.66.31l-.12,0A8.07,8.07,0,0,1,586,23h0c-.29.08-.58.14-.87.19h0a8.46,8.46,0,0,1-.88.09h0q-.39,0-.78,0l-.27,0a5.72,5.72,0,0,1-.7-.07l-.18,0c-.25,0-.5-.09-.75-.16l-.08,0a8.2,8.2,0,0,1-1.64-.64A6.52,6.52,0,0,1,579,22a8,8,0,0,1-.69-.5,7,7,0,0,1-.64-.58s0,0,0,0a6.32,6.32,0,0,1-.56-.6,8.11,8.11,0,0,1-1.92-5.4,8.33,8.33,0,0,1,4.09-7.24,6.63,6.63,0,0,1,1-.51,8.36,8.36,0,0,1,.83-.32,8.44,8.44,0,0,1,8.57,2.07,8.19,8.19,0,0,1,2.48,6A8.12,8.12,0,0,1,590,20.56Z" transform="translate(0 0)"/>
  <path class="cls-2" d="M174.05,36.42a20.55,20.55,0,0,0-2.83-1.66q-1.4-.66-2.61-1.11l-16.86-6.88a1,1,0,0,0-.28-.17,1.74,1.74,0,0,0-.39-.05.36.36,0,0,0-.22-.11A32.66,32.66,0,0,1,144.59,23c-1.89-1.33-2.83-3.63-2.83-6.88a8.15,8.15,0,0,1,2.72-6.55,15.4,15.4,0,0,1,5.93-3.22,17.2,17.2,0,0,1,2.83-.61,21,21,0,0,1,2.5-.16H157a18.83,18.83,0,0,1,5.44,1.27A17.87,17.87,0,0,1,169.61,12a9.84,9.84,0,0,1,1.55,2.38,11.55,11.55,0,0,1,1.39,3.39,21.35,21.35,0,0,1,.5,3.27h6.88V2.14h-5.88l-2.44,4.43a27.5,27.5,0,0,0-5.11-3.05,28.88,28.88,0,0,0-5.66-1.94c-1-.22-2-.38-3.05-.5a26.21,26.21,0,0,0-2.94-.17q-10.75,0-17.53,6.27t-6.77,14.37a30.86,30.86,0,0,0,.56,5.16,17.88,17.88,0,0,0,2.66,6.5,23.8,23.8,0,0,0,4.6,5.21A29.16,29.16,0,0,0,146,43l13.1,5.55.61.22.5.22a33,33,0,0,1,6.88,4c2.07,1.59,3.11,4.13,3.11,7.6a10.92,10.92,0,0,1-4.44,8.72,17.25,17.25,0,0,1-11.21,3.6,20.94,20.94,0,0,1-7.1-1.16,17.09,17.09,0,0,1-5.77-3.5c-.52-.52-1-1-1.45-1.5a17.37,17.37,0,0,1-1.22-1.5A13.34,13.34,0,0,1,136.65,61a24.07,24.07,0,0,1-.88-4.11h-6.33V76.37h5.33L136.65,71a23.16,23.16,0,0,0,10.16,5.44,42.29,42.29,0,0,0,8,1q12.21,0,20.42-6.6A20.67,20.67,0,0,0,183.44,54q0-7.11-2.94-11.27A23,23,0,0,0,174.05,36.42Z" transform="translate(0 0)"/>
  <path class="cls-2" d="M238.3,70.82V36.54a15.8,15.8,0,0,0-.17-2.28,12.15,12.15,0,0,0-.61-2.39c-.81-2.21-2.74-4.27-5.77-6.15s-8.21-2.83-15.54-2.83a50.13,50.13,0,0,0-11.65,1.22A35.14,35.14,0,0,0,194.91,28l5.88,6.88a22.14,22.14,0,0,1,2.11-2.22A14.92,14.92,0,0,1,205.12,31a15.62,15.62,0,0,1,5.71-2.5,25.64,25.64,0,0,1,4.27-.5h1.34a7.37,7.37,0,0,1,5.05,1.94c1.44,1.33,2.16,3.54,2.16,6.61v11a19.2,19.2,0,0,0-5.49-3.88A20,20,0,0,0,209.33,42a17.89,17.89,0,0,0-13.14,5.22,17,17,0,0,0-5.28,12.54q0,8.21,5.77,13a19.48,19.48,0,0,0,12.65,4.77,21.07,21.07,0,0,0,8.49-1.5,19,19,0,0,0,5.83-4v4.33h21V70.82ZM223,67.69c-.17.22-.34.44-.53.65l-.21.22A9.51,9.51,0,0,1,220.49,70a8.25,8.25,0,0,1-2,.87,7.51,7.51,0,0,1-1.07.22,7.88,7.88,0,0,1-1.09.08,9.36,9.36,0,0,1-1.67-.17h0v0a11.11,11.11,0,0,1-1.77-.5,10.78,10.78,0,0,1-4.67-3.38c-.13-.16-.26-.32-.38-.49l-.26-.39a10.13,10.13,0,0,1-1.21-3.43c0-.22-.08-.45-.11-.68,0,0,0-.07,0-.1,0-.3-.06-.6-.08-.92a.31.31,0,0,1,0-.1c0-.2,0-.4,0-.61s0-.22,0-.33,0-.22,0-.33c0-3.4.79-6,2.38-7.66a11.31,11.31,0,0,1,5.27-3.33,5.63,5.63,0,0,1,1.28-.28c.41,0,.83-.05,1.28-.05a8,8,0,0,1,4.16,1.16,9.11,9.11,0,0,1,3.16,3.28V66.72c-.19.33-.4.65-.62,1Z" transform="translate(0 0)"/>
  <path class="cls-2" d="M279.13,70.82h-6.21V45.08q0-6.66,2.27-9.71a9.14,9.14,0,0,1,5.05-3.72,4.31,4.31,0,0,1,1.11-.28c.37,0,.74-.05,1.11-.05q4.77,0,6.21,3.11a18.84,18.84,0,0,1,1.67,6.88V70.82h-6.22v5.55H311.2V70.82H305V42.19c0-1.11,0-2.34-.05-3.71a24.24,24.24,0,0,0-.5-4.16,16.52,16.52,0,0,0-4.11-7.88q-3.21-3.56-11-3.55-6.66,0-10.49,2.66a17.81,17.81,0,0,0-5.71,6.21h-.67l.45-2V24.22H252.05v5.55h6.22V70.82h-6.22v5.55h27.08Z" transform="translate(0 0)"/>
  <path class="cls-2" d="M366.38,70.82l0-34.28a15.8,15.8,0,0,0-.17-2.28,12.15,12.15,0,0,0-.61-2.39c-.82-2.21-2.74-4.27-5.77-6.15s-8.21-2.83-15.54-2.83a50.13,50.13,0,0,0-11.65,1.22A34.77,34.77,0,0,0,323,28l5.88,6.88A21.26,21.26,0,0,1,331,32.65,14.44,14.44,0,0,1,333.17,31a15.54,15.54,0,0,1,5.71-2.5,25.52,25.52,0,0,1,4.27-.5h1.34a7.37,7.37,0,0,1,5.05,1.94c1.44,1.33,2.16,3.54,2.16,6.61v11a19.2,19.2,0,0,0-5.49-3.88A20,20,0,0,0,337.38,42a17.89,17.89,0,0,0-13.14,5.22A17,17,0,0,0,319,59.73q0,8.21,5.77,13a19.48,19.48,0,0,0,12.65,4.77,21.1,21.1,0,0,0,8.49-1.5,19,19,0,0,0,5.79-4v4.33h21V70.82ZM351.7,66.73c-.12.21-.25.41-.38.6s-.28.39-.43.58-.3.36-.45.53-.34.35-.52.52a10.13,10.13,0,0,1-.9.72l-.48.32a8.09,8.09,0,0,1-2,.87,7.51,7.51,0,0,1-1.07.22,7.88,7.88,0,0,1-1.09.08,9.36,9.36,0,0,1-1.67-.17,10.82,10.82,0,0,1-1.77-.5,8.9,8.9,0,0,1-1.33-.61,6.44,6.44,0,0,1-.63-.36,6.34,6.34,0,0,1-.6-.41,6,6,0,0,1-.58-.45q-.27-.23-.54-.48a9.1,9.1,0,0,1-1-1.07h0a5.12,5.12,0,0,1-.49-.66l-.08-.12c-.12-.19-.24-.39-.35-.6h0a8.4,8.4,0,0,1-.36-.8h0c-.12-.31-.21-.64-.31-1l-.06-.22-.09-.37s0-.06,0-.08c-.08-.4-.16-.79-.21-1.23s-.07-.7-.1-1.07v0c0-.37,0-.76,0-1.16v0c0-.39,0-.78,0-1.15v-.1c0-.39.06-.76.11-1.13s.11-.73.18-1.08.16-.68.26-1a7.94,7.94,0,0,1,1.79-3.18c.18-.2.36-.39.55-.57s.33-.32.51-.47.35-.29.53-.43.37-.28.56-.4.39-.25.59-.37l.6-.33.63-.29.64-.26.66-.21a5.52,5.52,0,0,1,1.28-.28c.4,0,.83,0,1.28,0l.62,0,.61.07.4.07.53.13a8.09,8.09,0,0,1,2,.87c.19.12.38.24.56.38l.13.09.07.05a.71.71,0,0,1,.13.12,3.58,3.58,0,0,1,.49.4c.14.13.28.26.41.4a9.17,9.17,0,0,1,1.37,1.84Z" transform="translate(0 0)"/>
  <path class="cls-2" d="M410.67,74a11.08,11.08,0,0,0,3.39-5.44l-6-3.88a23,23,0,0,1-.95,5A2.88,2.88,0,0,1,404.18,72c-1.33,0-2.09-.57-2.27-1.72a23.59,23.59,0,0,1-.28-3.94V29.77h9.1V24.22h-9.1V4L387,9.24v15h-6.9v5.55H387V63.5a19.26,19.26,0,0,0,.11,2.44c.11.89.19,1.78.34,2.66a13.21,13.21,0,0,0,3.38,6.11c1.74,1.84,4.72,2.77,8.94,2.77.94,0,1.88-.07,2.82-.17a15.25,15.25,0,0,0,3.28-.72A12.33,12.33,0,0,0,410.67,74Z" transform="translate(0 0)"/>
  <path class="cls-2" d="M464.37,30.64q-6.14-7.76-18-7.75t-18.92,7.65a26.77,26.77,0,0,0-7.16,19,29.91,29.91,0,0,0,7,19.36q7,8.59,19.64,8.6a30.48,30.48,0,0,0,12.65-2.33,31.08,31.08,0,0,0,9.77-7.32,2.21,2.21,0,0,1,.5-.56,2.62,2.62,0,0,0,.5-.55L465.66,62a25.83,25.83,0,0,1-3.78,5.16,17.48,17.48,0,0,1-4,3.16,9.41,9.41,0,0,1-2.77,1.27,10.91,10.91,0,0,1-2.78.39h-.89a16.66,16.66,0,0,1-10.76-5q-4.89-4.67-4.88-16.09h34.62a10.81,10.81,0,0,0,.11-1.5v-1.5A27,27,0,0,0,464.37,30.64ZM456,45.19H435.81c0-.23,0-.46,0-.69a41.92,41.92,0,0,1,.24-4.69,3.86,3.86,0,0,1,.06-.49,6.57,6.57,0,0,1,.09-.66c.06-.43.14-.85.22-1.25,0-.17.07-.34.11-.51s.15-.63.24-.92.13-.44.2-.65a11.13,11.13,0,0,1,.46-1.2c.12-.28.26-.55.39-.8a5.5,5.5,0,0,1,.28-.48l0-.05.13-.2c.32-.47.65-.92,1-1.33s.67-.79,1-1.13A11.6,11.6,0,0,1,442,28.72a7.77,7.77,0,0,1,1.84-.84,5.55,5.55,0,0,1,1.27-.28c.41,0,.79-.05,1.16-.05h0a11.76,11.76,0,0,1,1.77.16,6.48,6.48,0,0,1,2,.72,10.67,10.67,0,0,1,4.11,4.39Q456,36.09,456,43.08Z" transform="translate(0 0)"/>
  <path class="cls-2" d="M505.94,70.82h-7.11V45.52c0-.74,0-1.68.06-2.83s.13-2.31.28-3.49a17,17,0,0,1,1.66-5.2,4.16,4.16,0,0,1,4-2.39h.77A7.22,7.22,0,0,1,509,33a5.75,5.75,0,0,1,2,4h1.55l5.55-11.87a.87.87,0,0,0-.22-.17.43.43,0,0,0-.22-.06,9.8,9.8,0,0,0-1.61-.83,12.12,12.12,0,0,0-1.94-.61,8.27,8.27,0,0,0-1.39-.33,9.21,9.21,0,0,0-1.28-.11A11.44,11.44,0,0,0,504,25.94a18.68,18.68,0,0,0-5.16,6.6h-.55l.55-2V24.22H478v5.55h6.22V70.82H478v5.55h28Z" transform="translate(0 0)"/>
  <path class="cls-2" d="M567.44,70.82l0-34.28a17.36,17.36,0,0,0-.17-2.28,12.15,12.15,0,0,0-.61-2.39c-.81-2.21-2.73-4.27-5.77-6.15s-8.21-2.83-15.53-2.83a50.13,50.13,0,0,0-11.65,1.22A34.77,34.77,0,0,0,524,28l5.88,6.88A21.26,21.26,0,0,1,532,32.65,14.45,14.45,0,0,1,534.23,31,15.52,15.52,0,0,1,540,28.5a25.4,25.4,0,0,1,4.27-.5h1.33a7.33,7.33,0,0,1,5.05,1.94c1.44,1.33,2.16,3.54,2.16,6.61v11a19.2,19.2,0,0,0-5.49-3.88A20,20,0,0,0,538.45,42a17.9,17.9,0,0,0-13.15,5.22A17,17,0,0,0,520,59.73q0,8.21,5.77,13a19.43,19.43,0,0,0,12.65,4.77,21.1,21.1,0,0,0,8.49-1.5,19.21,19.21,0,0,0,5.85-4v4.33h21V70.82Zm-14.68-4.1A9,9,0,0,1,549.6,70a7.92,7.92,0,0,1-4.16,1.17,9.36,9.36,0,0,1-1.67-.17,10.93,10.93,0,0,1-3.56-1.37,6.9,6.9,0,0,1-.63-.42,3.06,3.06,0,0,1-.29-.21l0,0a5.38,5.38,0,0,1-.59-.48,7.21,7.21,0,0,1-.7-.66q-.33-.34-.63-.72a3.59,3.59,0,0,1-.25-.33,4.6,4.6,0,0,1-.37-.53l0-.06a4.39,4.39,0,0,1-.27-.47c-.13-.24-.24-.5-.35-.76,0,0,0-.08,0-.12q-.15-.37-.27-.78v0a9,9,0,0,1-.23-.93v0c-.07-.33-.12-.67-.17-1h0q-.06-.49-.09-1c0-.16,0-.33,0-.5s0-.54,0-.81v0q0-.53,0-1c0-.05,0-.09,0-.13v-.1c0-.39.06-.76.11-1.13s.11-.73.18-1.08.16-.68.26-1a7.84,7.84,0,0,1,1.8-3.18l.54-.58a3.2,3.2,0,0,1,.27-.25l0,0,.12-.11c.2-.17.4-.34.61-.5l.49-.35.13-.09,0,0,.48-.29q.3-.18.6-.33l.63-.29.65-.26.33-.11.33-.1a5.43,5.43,0,0,1,1.27-.28c.41,0,.84,0,1.28,0h.41l.41,0,.41,0,.4.07.53.13a6.52,6.52,0,0,1,1,.36h0a8.11,8.11,0,0,1,1,.5l.24.15.24.16c.15.1.29.21.43.32l.25.21c.22.19.43.39.63.59a10.14,10.14,0,0,1,.74.88,9.9,9.9,0,0,1,.63,1Z" transform="translate(0 0)"/>
  <polygon class="cls-8" points="139.31 106.18 132.37 97.95 129.52 97.95 129.52 114.9 132.83 114.9 132.83 102.79 138.78 110.2 139.78 110.2 145.69 102.65 145.69 114.9 149 114.9 149 97.95 146.15 97.95 139.31 106.18"/>
  <path class="cls-8" d="M176.91,106.15a10.22,10.22,0,0,0-.56-3.42,7.74,7.74,0,0,0-1.56-2.73,7.3,7.3,0,0,0-2.58-1.82,8.87,8.87,0,0,0-3.49-.65,9,9,0,0,0-3.44.65,8.11,8.11,0,0,0-2.76,1.86,8.34,8.34,0,0,0-1.83,2.85,9.67,9.67,0,0,0-.66,3.61,9.39,9.39,0,0,0,.67,3.63,8.74,8.74,0,0,0,1.87,2.82,8.25,8.25,0,0,0,2.84,1.81,9.43,9.43,0,0,0,3.52.65,9.68,9.68,0,0,0,4.1-.86,8.69,8.69,0,0,0,3.27-2.74l-2.38-1.71a6.28,6.28,0,0,1-1.94,1.83,5.83,5.83,0,0,1-7-.76,5.69,5.69,0,0,1-1.19-1.69,5.55,5.55,0,0,1-.48-2.12h13.57ZM173.74,105h-10.4v0c0-.15,0-.3.06-.45s0-.24.08-.36.06-.23.1-.35a5,5,0,0,1,.28-.67,5.56,5.56,0,0,1,2.81-2.65,5,5,0,0,1,2.05-.41,4.73,4.73,0,0,1,3.67,1.39,5.47,5.47,0,0,1,1,1.53c0,.11.09.23.12.34a3.57,3.57,0,0,1,.1.35,1.37,1.37,0,0,1,.08.35,4.81,4.81,0,0,1,.09.93Z" transform="translate(0 0)"/>
  <path class="cls-8" d="M203.2,112.2,197.78,98h-3.41l-5.85,14.25h-2.74v7.65h3v-5h14.29v4.95h3V112.2Zm-11.29,0,0,0,.67-1.81.22-.6,0-.09.28-.75,1.86-5,1.07-2.17v0l3.76,10.34v0Z" transform="translate(0 0)"/>
  <polygon class="cls-8" points="219.07 110.31 219.07 97.95 215.72 97.95 215.72 114.9 219.07 114.9 228.69 102.19 228.69 114.9 232.03 114.9 232.03 97.95 228.69 97.95 219.07 110.31"/>
  <polygon class="cls-8" points="258.72 97.95 255.44 97.95 255.44 112.09 247.32 112.09 247.32 97.95 244.01 97.95 244.01 114.9 258.51 114.9 258.51 119.82 261.5 119.82 261.5 112.09 258.72 112.09 258.72 97.95"/>
  <polygon class="cls-8" points="274.95 110.31 274.95 97.95 271.6 97.95 271.6 114.9 274.95 114.9 284.56 102.19 284.56 114.9 287.91 114.9 287.91 97.95 284.56 97.95 274.95 110.31"/>
  <polygon class="cls-8" points="311.79 104.64 303.2 104.64 303.2 97.95 299.89 97.95 299.89 114.9 303.2 114.9 303.2 107.32 311.79 107.32 311.79 114.9 315.1 114.9 315.1 97.95 311.79 97.95 311.79 104.64"/>
  <path class="cls-8" d="M337.75,112a5.42,5.42,0,0,1-2.44.53,5.73,5.73,0,0,1-2.38-.48,5.44,5.44,0,0,1-1.82-1.29,5.74,5.74,0,0,1-1.16-2,7.22,7.22,0,0,1,0-4.81,5.74,5.74,0,0,1,1.16-2,5.44,5.44,0,0,1,1.82-1.29,5.73,5.73,0,0,1,2.38-.48,5,5,0,0,1,2.34.55,4.1,4.1,0,0,1,1.65,1.44l2.28-2a6.84,6.84,0,0,0-2.81-2.09,9.12,9.12,0,0,0-3.49-.72,10.06,10.06,0,0,0-3.72.65,8.2,8.2,0,0,0-2.89,1.86,8.52,8.52,0,0,0-1.87,2.83,9.81,9.81,0,0,0,0,7.19,8.29,8.29,0,0,0,4.76,4.69,10.07,10.07,0,0,0,3.72.66,8.82,8.82,0,0,0,3.72-.76,8.41,8.41,0,0,0,2.69-2l-2.21-2A5,5,0,0,1,337.75,112Z" transform="translate(0 0)"/>
  <path class="cls-8" d="M364.47,109.1a9.2,9.2,0,0,0-1.89-2,9.7,9.7,0,0,0-2.46-1.36L366.39,98h-3.67l-5.48,7a13.7,13.7,0,0,0-2.39-.21V98h-3.31v17h3.31v-7.51a14.31,14.31,0,0,1,3.12.44,6,6,0,0,1,2.38,1.25,7.18,7.18,0,0,1,1.73,2.28,14.59,14.59,0,0,1,1.18,3.54h3.67a25.76,25.76,0,0,0-1.05-3.22A13.44,13.44,0,0,0,364.47,109.1Z" transform="translate(0 0)"/>
  <polygon class="cls-8" points="380.62 110.31 380.62 97.95 377.27 97.95 377.27 114.9 380.62 114.9 390.23 102.19 390.23 114.9 393.58 114.9 393.58 97.95 390.23 97.95 380.62 110.31"/>
  <polygon class="cls-8" points="408.91 110.31 408.91 97.95 405.56 97.95 405.56 114.9 408.91 114.9 418.52 102.19 418.52 114.9 421.87 114.9 421.87 97.95 418.52 97.95 408.91 110.31"/>
  <path class="cls-8" d="M411.51,91.57a3.8,3.8,0,0,1-1.43-1.85l-2,1a4.56,4.56,0,0,0,.79,1.41,5.45,5.45,0,0,0,1.28,1.16,6.89,6.89,0,0,0,1.69.8,6.63,6.63,0,0,0,2.08.3,6.8,6.8,0,0,0,3.78-1.1,5.12,5.12,0,0,0,1.3-1.2,5.5,5.5,0,0,0,.81-1.41l-2-1a3.8,3.8,0,0,1-1.43,1.85,4.09,4.09,0,0,1-2.46.75A4,4,0,0,1,411.51,91.57Z" transform="translate(0 0)"/>
  <polygon class="cls-8" points="465.43 97.95 462.15 97.95 462.15 112.09 454.03 112.09 454.03 97.95 450.72 97.95 450.72 114.9 465.22 114.9 465.22 119.82 468.21 119.82 468.21 112.09 465.43 112.09 465.43 97.95"/>
  <path class="cls-8" d="M493.84,106.15a10.22,10.22,0,0,0-.56-3.42,7.74,7.74,0,0,0-1.56-2.73,7.3,7.3,0,0,0-2.58-1.82,9.56,9.56,0,0,0-6.93,0,8.25,8.25,0,0,0-2.76,1.86,8.34,8.34,0,0,0-1.83,2.85,9.67,9.67,0,0,0-.66,3.61,9.22,9.22,0,0,0,.68,3.63A8.4,8.4,0,0,0,479.5,113a8.25,8.25,0,0,0,2.84,1.81,9.39,9.39,0,0,0,3.52.65,9.68,9.68,0,0,0,4.1-.86,8.76,8.76,0,0,0,3.27-2.74l-2.38-1.71a6.28,6.28,0,0,1-1.94,1.83,5.83,5.83,0,0,1-7-.76,5.69,5.69,0,0,1-1.19-1.69,5.37,5.37,0,0,1-.48-2.12h13.57ZM490.62,105H480.27a4.84,4.84,0,0,1,.52-1.86,5.68,5.68,0,0,1,1.15-1.56,4.82,4.82,0,0,1,.43-.36,5.85,5.85,0,0,1,.48-.34l.35-.2.4-.19a5.08,5.08,0,0,1,2-.41,4.76,4.76,0,0,1,3.67,1.39,5.32,5.32,0,0,1,1.35,3.5Z" transform="translate(0 0)"/>
  <polygon class="cls-8" points="516.76 104.64 508.18 104.64 508.18 97.95 504.87 97.95 504.87 114.9 508.18 114.9 508.18 107.32 516.76 107.32 516.76 114.9 520.08 114.9 520.08 97.95 516.76 97.95 516.76 104.64"/>
  <polygon class="cls-8" points="529.94 100.62 535.57 100.62 535.57 114.9 538.88 114.9 538.88 100.62 544.83 100.62 544.83 97.95 529.94 97.95 529.94 100.62"/>
  <path class="cls-8" d="M572.18,102.9a8.5,8.5,0,0,0-1.75-2.78,8.12,8.12,0,0,0-2.7-1.9,8.5,8.5,0,0,0-3.51-.7,7.82,7.82,0,0,0-3.49.82,6.8,6.8,0,0,0-2.64,2.32H558V98h-3.24v25.5h3.32V112.3h.1a6.48,6.48,0,0,0,2.64,2.28,7.91,7.91,0,0,0,3.38.79,8.51,8.51,0,0,0,3.55-.72,8.18,8.18,0,0,0,2.7-1.92,8.5,8.5,0,0,0,1.73-2.83A10.27,10.27,0,0,0,572.18,102.9Zm-14,5.86a3.68,3.68,0,0,1-.15-.47,4.34,4.34,0,0,1-.14-.6,6.7,6.7,0,0,1,.29-3.73,5.71,5.71,0,0,1,1.21-2,5.48,5.48,0,0,1,1.87-1.32,6.2,6.2,0,0,1,4.82,0,5.41,5.41,0,0,1,2.94,3.29,7.11,7.11,0,0,1,.3,1.29v0a7.59,7.59,0,0,1-.3,3.41v.12a5.42,5.42,0,0,1-2.94,3.28,5.61,5.61,0,0,1-2.45.5,5.81,5.81,0,0,1-2.37-.48,5.46,5.46,0,0,1-1.87-1.31,5.75,5.75,0,0,1-1.2-2Z" transform="translate(0 0)"/>
</svg>
