<svg width="212" height="150" viewBox="0 0 212 150" fill="none" xmlns="http://www.w3.org/2000/svg">
<path d="M154.387 125.727C150.63 125.727 147.218 127.167 144.642 129.509C144.683 129.059 144.71 128.607 144.71 128.147C144.71 120.129 138.211 113.631 130.193 113.631C127.786 113.631 125.522 114.226 123.523 115.261C120.964 111.787 117.395 109.111 113.258 107.64V94.2759H98.7418V107.64C94.6023 109.114 91.0362 111.787 88.4765 115.261C86.4781 114.226 84.2136 113.631 81.8064 113.631C73.7886 113.631 67.2902 120.129 67.2902 128.147C67.2902 128.607 67.3168 129.059 67.358 129.509C64.7814 127.167 61.3701 125.727 57.6128 125.727C49.5951 125.727 43.0967 132.226 43.0967 140.244C43.0967 142.89 43.8176 145.365 45.0539 147.502H166.943C168.182 145.365 168.903 142.89 168.903 140.244C168.903 132.226 162.405 125.727 154.387 125.727Z" fill="#D60623"/>
<path d="M113.258 79.7595H108.42V61.4063L106 58.987L103.581 61.4063V79.7595H98.7422V59.4031L106 52.145L113.258 59.4031V79.7595Z" fill="#D60623"/>
<path d="M120.517 33.792H113.259V38.6307H120.517V33.792Z" fill="#D60623"/>
<path d="M98.7424 33.792H91.4844V38.6307H98.7424V33.792Z" fill="#D60623"/>
<path d="M68.0762 82.1794H84.2254V77.3407H68.0762C67.6431 77.3407 67.2899 76.9875 67.2899 76.5544C67.2899 76.3028 67.4108 76.0657 67.6141 75.9181L89.0641 60.3181V82.1794H122.935V60.3181L144.385 75.9181C144.588 76.0657 144.709 76.3028 144.709 76.5544C144.709 76.9875 144.356 77.3407 143.923 77.3407H127.774V82.1794H143.923C147.025 82.1794 149.548 79.656 149.548 76.5544C149.548 74.7617 148.682 73.0609 147.233 72.006L122.935 54.3351V20.4496C122.935 15.9254 121.174 11.6746 117.975 8.47379L111.84 2.34073C108.721 -0.780242 103.278 -0.780242 100.159 2.34073L94.0238 8.47621C90.8254 11.6746 89.0641 15.9278 89.0641 20.4496V54.3327L64.7689 72.0012C63.3173 73.0585 62.4512 74.7593 62.4512 76.5544C62.4512 79.656 64.9746 82.1794 68.0762 82.1794ZM93.9028 77.3407V28.9536H118.096V77.3407H93.9028ZM97.4447 11.8972L103.58 5.76169C104.853 4.48911 107.146 4.48911 108.419 5.76169L114.554 11.8972C116.838 14.181 118.096 17.2198 118.096 20.4496V24.1149H93.9028V20.4496C93.9028 17.2198 95.1609 14.181 97.4447 11.8972Z" fill="black"/>
<path d="M91.4834 87.0181V96.6955H120.516V87.0181H115.677V91.8568H108.419V87.0181H103.58V91.8568H96.3221V87.0181H91.4834Z" fill="black"/>
<path d="M170.59 145.083C171.061 143.515 171.323 141.889 171.323 140.244C171.323 130.905 163.726 123.308 154.387 123.308C151.673 123.308 149.115 123.966 146.841 125.106C145.402 117.216 138.492 111.212 130.194 111.212C128.156 111.212 126.129 111.584 124.232 112.295C121.917 109.632 119.019 107.454 115.677 105.993V101.534H110.839V109.346L112.45 109.917C120.168 112.651 125.355 119.977 125.355 128.147H130.194C130.194 123.954 129.049 119.972 127.094 116.459C128.096 116.195 129.129 116.05 130.194 116.05C136.864 116.05 142.29 121.477 142.29 128.147C142.29 128.241 142.281 128.333 142.278 128.428C139.298 131.481 137.452 135.65 137.452 140.244H142.29C142.29 133.574 147.717 128.147 154.387 128.147C161.057 128.147 166.484 133.574 166.484 140.244C166.484 141.908 166.131 143.556 165.458 145.083H46.5274C45.8645 143.566 45.5161 141.918 45.5161 140.244C45.5161 133.574 50.9427 128.147 57.6129 128.147C61.9169 128.147 65.9331 130.465 68.0935 134.198L72.2815 131.774C71.5677 130.54 70.6968 129.427 69.7218 128.43C69.7194 128.336 69.7097 128.241 69.7097 128.147C69.7097 121.477 75.1363 116.05 81.8065 116.05C82.871 116.05 83.904 116.195 84.9032 116.459C82.9508 119.972 81.8065 123.954 81.8065 128.147C81.8065 133.661 83.7129 139.056 87.1702 143.341L90.9347 140.3C88.1282 136.823 86.6452 132.623 86.6452 128.147C86.6452 119.977 91.8323 112.651 99.55 109.92L101.161 109.346V101.534H96.3226V105.993C92.9815 107.454 90.0831 109.632 87.7677 112.295C85.871 111.584 83.8436 111.212 81.8065 111.212C73.4984 111.212 66.5839 117.229 65.1565 125.13C62.8411 123.974 60.2742 123.308 57.6129 123.308C48.2742 123.308 40.6774 130.905 40.6774 140.244C40.6774 141.894 40.9339 143.52 41.4008 145.083H31V149.921H181V145.083H170.59Z" fill="black"/>
<path d="M96.3221 123.308H91.4834V128.147H96.3221V123.308Z" fill="black"/>
<path d="M125.355 132.986H120.517V137.825H125.355V132.986Z" fill="black"/>
<path d="M156.806 135.405H151.968V140.244H156.806V135.405Z" fill="black"/>
<path d="M76.9676 135.405H72.1289V140.244H76.9676V135.405Z" fill="black"/>
</svg>
